<?xml version="1.0" standalone="no"?>
<!DOCTYPE svg PUBLIC "-//W3C//DTD SVG 20010904//EN"
 "http://www.w3.org/TR/2001/REC-SVG-20010904/DTD/svg10.dtd">
<svg version="1.0" xmlns="http://www.w3.org/2000/svg"
 width="400.000000pt" height="400.000000pt" viewBox="0 0 400.000000 400.000000"
 preserveAspectRatio="xMidYMid meet">
<metadata>
Created by potrace 1.14, written by Peter Selinger 2001-2017
</metadata>
<g transform="translate(0.000000,400.000000) scale(0.100000,-0.100000)"
fill="#000000" stroke="none">
<path d="M0 3750 l0 -250 30 0 c23 0 33 6 40 25 5 14 14 25 20 25 6 0 15 -11
20 -25 7 -19 17 -25 39 -25 40 0 47 -15 17 -35 -20 -14 -24 -22 -19 -46 6 -33
-11 -39 -47 -17 -16 11 -22 9 -34 -7 -11 -15 -18 -17 -26 -9 -9 9 -8 18 5 37
16 25 16 26 -14 42 l-31 16 0 -194 0 -194 34 11 c19 6 37 19 39 28 7 25 37 23
37 -2 0 -14 7 -20 24 -20 34 0 54 -27 33 -43 -9 -7 -17 -29 -19 -49 -3 -38 -3
-38 -30 -24 -16 9 -30 11 -33 5 -9 -14 -42 -11 -48 5 -3 7 -1 18 4 23 6 6 0
18 -16 33 l-25 23 0 -492 0 -492 963 2 c735 1 969 -1 986 -10 l22 -12 -23 -23
c-13 -13 -48 -39 -78 -59 -83 -55 -102 -69 -138 -99 -17 -15 -58 -40 -90 -55
l-57 -28 -792 -3 -793 -4 0 -123 0 -123 113 -6 c61 -3 389 -8 727 -12 338 -3
660 -8 715 -10 55 -2 117 -4 138 -4 l37 0 0 -765 0 -765 290 0 290 0 0 759 c0
597 3 761 13 768 6 4 368 8 802 9 435 1 809 3 833 3 l42 1 0 385 0 385 -842 2
-843 3 -3 30 -3 30 -352 0 -352 0 0 145 0 145 45 2 c25 1 241 2 480 3 279 1
428 5 415 11 -16 7 -14 9 12 6 27 -3 34 2 53 35 15 27 28 38 44 38 15 0 26 7
29 19 2 10 17 21 32 25 41 10 75 36 68 52 -3 8 1 14 9 14 14 0 58 40 58 53 0
4 -280 8 -623 9 l-622 3 0 145 0 145 830 2 c457 1 848 3 870 3 30 0 36 3 25
10 -12 8 -11 10 6 10 34 0 84 21 84 35 0 16 64 55 91 55 11 0 22 6 25 14 3 7
25 28 49 46 42 32 62 65 45 75 -5 3 -461 5 -1014 5 l-1006 0 -5 23 c-3 12 -4
81 -3 152 l3 130 1198 0 1197 0 0 108 0 107 -2000 0 -2000 0 0 -250z m108 187
c3 -23 8 -27 33 -27 22 0 29 -5 29 -19 0 -10 -7 -21 -14 -24 -11 -4 -13 -16
-9 -41 4 -28 2 -36 -9 -36 -9 0 -21 7 -28 15 -7 8 -18 15 -25 15 -7 0 -15 -7
-19 -15 -9 -23 -26 -18 -26 9 0 13 -7 40 -15 60 -15 36 -15 36 10 36 20 0 27
6 32 30 7 39 37 37 41 -3z m439 3 c7 -20 18 -30 32 -30 28 0 36 -18 18 -38 -9
-10 -15 -32 -15 -50 1 -43 -6 -48 -31 -21 -19 21 -21 21 -46 5 -14 -9 -26 -13
-26 -9 -1 5 -3 17 -4 28 -1 12 -8 31 -14 44 -16 29 -8 51 17 44 15 -4 21 2 25
26 8 39 29 40 44 1z m435 -5 c2 -13 12 -21 31 -23 30 -4 34 -17 12 -46 -8 -11
-12 -29 -9 -42 9 -36 -5 -49 -27 -25 -23 25 -32 26 -49 6 -19 -23 -30 -18 -30
15 0 35 -19 79 -34 81 -6 1 5 4 24 8 25 4 39 14 48 34 15 30 27 27 34 -8z
m442 9 c4 -16 12 -24 21 -21 7 3 18 0 24 -7 12 -15 5 -46 -11 -46 -6 0 -7 -16
-3 -41 l7 -41 -31 18 c-26 16 -35 16 -52 6 -26 -17 -42 -6 -35 24 5 17 2 26
-9 30 -21 8 -19 44 2 44 20 0 53 28 53 47 0 24 28 14 34 -13z m-1079 -214 c11
-21 23 -30 40 -30 31 0 33 -22 4 -41 -17 -12 -19 -18 -10 -42 10 -24 8 -27
-12 -27 -12 0 -29 5 -37 10 -10 6 -20 4 -32 -6 -22 -21 -40 -9 -32 22 5 18 0
32 -15 48 -27 28 -14 46 33 46 8 0 17 11 20 25 8 33 22 32 41 -5z m439 -2 c7
-14 22 -24 39 -26 32 -4 33 -7 8 -34 -14 -15 -18 -29 -14 -49 5 -25 2 -29 -16
-29 -11 0 -21 5 -21 10 0 16 -38 11 -48 -6 -14 -26 -34 -7 -27 26 5 22 1 31
-16 43 -27 20 -19 46 13 40 18 -3 27 3 41 28 19 33 23 33 41 -3z m476 -26 c24
6 21 -21 -4 -37 -23 -15 -24 -19 -12 -37 8 -11 12 -27 9 -35 -5 -12 -9 -11
-29 2 -14 9 -37 14 -52 13 -22 -2 -27 1 -27 19 0 12 -10 30 -23 39 -18 12 -21
19 -11 30 6 8 18 14 25 14 8 0 23 9 35 21 l21 21 28 -27 c15 -14 33 -25 40
-23z m-270 -179 c0 -7 14 -16 30 -19 35 -7 36 -11 13 -36 -11 -12 -16 -32 -14
-54 3 -39 -7 -43 -32 -14 -14 17 -21 18 -37 10 -11 -6 -20 -15 -20 -20 0 -6
-5 -10 -11 -10 -7 0 -9 12 -6 33 4 26 0 36 -22 54 -29 24 -27 30 12 37 37 6
47 14 47 35 0 10 3 21 7 25 9 8 33 -22 33 -41z m-441 6 c7 -20 17 -30 28 -29
48 5 59 -15 22 -38 -16 -10 -19 -20 -15 -38 7 -28 -17 -45 -37 -25 -17 17 -44
13 -52 -6 -6 -17 -7 -17 -16 0 -6 9 -8 26 -4 36 4 13 -2 24 -20 35 -30 19 -25
36 10 36 17 0 29 9 40 30 20 38 30 38 44 -1z m875 6 c4 -15 14 -25 25 -25 26
0 32 -10 19 -34 -6 -11 -11 -36 -9 -53 2 -36 -12 -42 -43 -18 -17 13 -22 13
-37 -1 -16 -14 -18 -14 -27 3 -5 10 -7 24 -5 31 3 7 -3 19 -13 26 -22 17 -12
46 16 46 13 0 24 10 30 25 5 14 16 25 24 25 7 0 17 -11 20 -25z m-196 -202 c2
-17 12 -24 38 -29 39 -7 42 -14 14 -39 -16 -14 -19 -26 -14 -52 8 -40 -15 -46
-39 -10 l-15 22 -21 -22 c-32 -33 -45 -29 -38 12 5 28 2 38 -15 49 -24 17 -18
48 9 45 36 -3 43 1 43 27 0 32 33 30 38 -3z m-436 -1 c7 -10 25 -22 41 -26 32
-8 34 -19 6 -47 -13 -13 -18 -27 -14 -37 4 -9 9 -23 12 -29 3 -8 -3 -13 -15
-13 -11 0 -22 6 -25 13 -3 9 -11 9 -37 0 -42 -16 -55 -7 -36 22 15 23 14 26
-17 55 -22 20 -27 30 -17 31 8 1 20 3 25 4 6 2 18 3 28 4 10 1 17 9 17 21 0
25 15 26 32 2z m-432 -13 c0 -5 6 -9 13 -9 6 0 23 -9 36 -19 l24 -19 -21 -6
c-24 -8 -30 -44 -10 -64 18 -18 -19 -27 -48 -12 -19 11 -27 11 -36 2 -7 -7
-18 -12 -25 -12 -16 0 -17 32 -2 47 8 8 6 16 -10 29 -26 23 -27 44 -3 44 11 0
27 9 36 19 17 19 46 19 46 0z m181 -179 c8 -22 17 -30 34 -30 12 0 28 -7 35
-15 11 -13 10 -18 -9 -32 -18 -12 -22 -22 -17 -44 5 -26 3 -29 -18 -29 -14 0
-26 5 -28 12 -3 7 -12 6 -30 -6 -30 -19 -42 -10 -33 26 4 17 0 30 -14 42 -31
28 -26 46 10 46 25 0 33 6 42 30 6 17 13 30 15 30 2 0 8 -13 13 -30z m881 -3
c2 -15 11 -23 28 -25 40 -6 46 -19 22 -45 -19 -20 -21 -28 -13 -50 9 -23 8
-27 -6 -27 -9 0 -25 8 -36 17 -18 17 -19 17 -28 0 -6 -9 -17 -17 -24 -17 -15
0 -19 11 -15 44 1 11 -8 27 -21 36 -27 21 -17 40 21 40 23 0 30 5 35 29 7 34
32 32 37 -2z m-432 -7 c6 -11 21 -20 35 -20 36 0 42 -20 12 -42 -21 -15 -26
-25 -21 -43 9 -35 -6 -53 -23 -29 -13 18 -15 18 -43 2 -15 -9 -31 -14 -34 -10
-11 10 -6 40 6 44 8 3 3 16 -16 39 l-29 34 25 3 c14 2 34 12 44 23 22 24 31
24 44 -1z m-640 -215 c7 -19 17 -25 40 -25 35 0 40 -19 9 -38 -15 -9 -20 -21
-17 -37 7 -33 -7 -54 -24 -37 -14 14 -58 16 -58 2 0 -5 -7 -10 -15 -10 -10 0
-15 10 -15 34 0 18 -7 39 -15 46 -23 19 -18 38 13 42 16 2 31 12 37 26 13 29
33 28 45 -3z m430 6 c0 -21 19 -31 56 -31 29 0 32 -25 4 -33 -15 -4 -20 -14
-20 -39 0 -44 -5 -48 -41 -34 -26 9 -33 8 -43 -6 -16 -22 -26 -13 -26 24 0 15
-9 37 -21 49 -27 27 -18 52 16 43 20 -5 27 -1 36 20 14 30 39 35 39 7z m434 1
c4 -11 22 -22 42 -28 l37 -9 -27 -27 c-23 -23 -25 -29 -15 -46 7 -11 9 -27 6
-36 -6 -16 -8 -16 -23 -2 -18 19 -38 20 -65 6 -16 -9 -19 -7 -19 15 0 14 -9
36 -20 48 -27 28 -22 51 13 55 15 2 32 12 37 23 13 24 27 24 34 1z m-1104
-203 c0 -15 7 -19 35 -19 38 0 47 -20 20 -46 -8 -9 -15 -31 -15 -50 0 -33 -12
-45 -25 -24 -8 13 -65 13 -65 -1 0 -5 -4 -7 -10 -4 -5 3 -10 19 -10 34 0 15
-7 36 -15 47 -23 30 -18 44 15 44 23 0 30 5 30 19 0 19 18 32 33 24 4 -2 7
-13 7 -24z m1318 3 c3 -16 10 -22 28 -22 30 0 44 -29 20 -42 -14 -8 -16 -18
-11 -49 7 -43 2 -47 -41 -24 -19 9 -32 11 -38 5 -21 -21 -36 -10 -36 25 0 24
-6 37 -20 45 -33 18 -25 40 15 40 29 0 36 4 41 26 8 31 38 29 42 -4z m-883 -1
c3 -12 19 -21 40 -25 35 -7 47 -29 21 -39 -8 -3 -17 -24 -21 -46 -6 -36 -9
-40 -25 -31 -24 13 -60 13 -60 0 0 -5 -4 -10 -10 -10 -5 0 -10 14 -10 31 0 17
-9 42 -20 56 -27 35 -25 43 11 43 22 0 32 5 36 20 7 25 30 26 38 1z m449 -7
c3 -8 16 -14 30 -14 35 0 43 -20 16 -42 -18 -15 -21 -24 -16 -53 8 -38 3 -41
-34 -20 -22 12 -27 11 -47 -7 -29 -27 -41 -16 -26 22 10 27 8 33 -18 57 -37
36 -37 43 6 43 24 0 37 6 45 20 11 21 35 18 44 -6z m-644 -184 c0 -14 8 -20
32 -22 39 -4 51 -33 18 -43 -19 -6 -21 -12 -16 -40 8 -43 -7 -52 -40 -26 -25
19 -28 20 -39 4 -15 -20 -39 -8 -32 18 3 10 -3 30 -14 43 -27 34 -24 44 14 48
27 2 33 8 35 30 3 24 6 27 23 18 10 -6 19 -19 19 -30z m432 5 c2 -14 13 -21
38 -25 40 -6 53 -34 20 -43 -15 -4 -20 -13 -20 -41 0 -40 1 -40 -36 -26 -21 8
-31 7 -44 -5 -21 -19 -35 -5 -25 25 4 13 -1 25 -14 37 -31 26 -27 53 7 53 21
0 30 7 41 31 14 31 26 29 33 -6z m445 -5 c3 -11 13 -20 22 -20 17 0 41 -18 41
-31 0 -4 -9 -11 -21 -14 -17 -6 -20 -12 -15 -39 8 -41 0 -49 -30 -30 -21 14
-25 14 -39 0 -26 -25 -35 -19 -35 23 0 31 -4 41 -20 46 -11 3 -20 15 -20 26 0
14 7 19 30 19 19 0 33 7 40 20 6 11 18 20 26 20 9 0 18 -9 21 -20z m-198 -220
c41 -6 50 -24 21 -40 -15 -8 -20 -19 -18 -38 3 -25 1 -27 -34 -24 -20 2 -45
-1 -55 -6 -16 -9 -18 -6 -17 21 0 20 -7 38 -19 48 -23 19 -15 39 15 39 25 0
58 27 59 49 1 9 4 3 8 -14 5 -25 12 -31 40 -35z m403 33 c3 -24 8 -28 41 -31
41 -4 53 -30 17 -39 -16 -4 -20 -14 -20 -44 0 -37 -12 -51 -25 -29 -8 13 -52
13 -60 0 -11 -18 -25 0 -25 30 0 19 -7 33 -20 40 -31 16 -25 40 10 40 23 0 33
7 45 30 19 37 33 38 37 3z m-1299 -13 c3 -12 14 -20 25 -20 32 0 37 -21 11
-41 -19 -14 -22 -20 -11 -30 6 -7 12 -24 12 -37 0 -22 -1 -22 -22 -8 -12 9
-39 16 -59 16 -33 0 -36 3 -32 21 4 14 -1 25 -16 35 -29 21 -27 44 4 44 14 0
30 9 37 20 7 11 20 20 29 20 9 0 19 -9 22 -20z m427 10 c0 -5 17 -18 37 -27
42 -21 55 -43 24 -43 -27 0 -36 -22 -21 -50 16 -30 8 -34 -35 -19 -29 11 -40
11 -56 0 -26 -16 -37 -6 -21 19 14 22 6 50 -14 50 -8 0 -14 9 -14 20 0 12 7
20 16 20 9 0 27 9 41 20 28 22 43 25 43 10z"/>
<path d="M3945 3510 c-22 -16 -49 -29 -61 -30 -11 0 -41 -20 -67 -45 -26 -24
-59 -51 -74 -60 -37 -21 -94 -61 -113 -79 -8 -7 -31 -21 -50 -29 -19 -8 -47
-27 -62 -41 -15 -14 -31 -26 -35 -26 -5 0 -14 -9 -21 -20 -6 -11 -29 -29 -49
-40 -50 -27 -161 -105 -195 -137 -15 -15 -36 -27 -46 -28 -10 0 -29 -9 -42
-18 -14 -9 -29 -17 -35 -17 -6 0 -20 -8 -31 -17 -11 -10 -32 -25 -46 -33 -15
-8 -66 -42 -115 -75 -48 -33 -113 -73 -143 -89 -30 -16 -56 -33 -58 -37 -2 -5
-13 -9 -25 -9 l-22 -1 21 -17 c20 -17 20 -18 1 -37 -18 -20 -18 -20 158 -23
163 -2 178 -1 205 18 15 11 32 20 37 20 6 0 18 9 28 20 10 11 25 20 33 20 8 0
44 22 81 48 36 27 77 55 90 62 14 7 34 21 45 31 11 11 25 19 31 19 6 0 26 12
45 28 19 15 47 34 63 41 15 8 27 21 27 28 0 7 8 17 17 20 9 4 25 15 35 25 10
10 29 23 41 28 12 6 42 26 67 45 25 19 60 42 78 51 19 10 39 25 45 36 7 10 17
18 24 18 21 0 126 62 156 92 14 15 17 37 17 153 0 74 -3 135 -7 135 -5 -1 -26
-14 -48 -30z"/>
<path d="M3956 2771 c-9 -10 -36 -27 -59 -37 -23 -10 -44 -21 -47 -25 -3 -3
-40 -28 -83 -56 -43 -28 -72 -52 -65 -55 7 -2 76 -3 153 -2 l140 3 3 95 c3
102 -5 118 -42 77z"/>
<path d="M996 1250 c-15 -5 -36 -15 -45 -23 -9 -8 -32 -23 -53 -33 -66 -34
-292 -191 -348 -242 -77 -71 -78 -72 -88 -72 -5 0 -24 -13 -42 -30 -18 -16
-38 -30 -43 -30 -5 0 -25 -13 -44 -30 -18 -16 -40 -30 -48 -30 -8 0 -15 -5
-15 -10 0 -9 -64 -42 -177 -91 -18 -8 -33 -17 -33 -21 0 -4 -13 -14 -30 -23
l-30 -16 0 -149 c0 -83 4 -150 9 -150 4 0 20 11 35 25 15 14 33 25 40 25 7 0
21 9 31 20 10 11 24 20 32 20 20 0 63 30 63 45 0 12 34 36 100 73 14 7 34 22
46 33 11 10 25 19 30 19 6 0 19 8 30 18 27 25 137 92 151 92 6 0 19 7 28 16
13 13 103 76 184 129 8 6 37 25 64 43 27 17 55 32 63 32 7 0 18 8 23 18 6 11
36 36 68 58 32 21 64 47 71 57 7 9 21 17 30 17 9 1 33 14 52 30 19 17 39 30
45 30 5 0 23 11 39 25 16 14 37 25 46 25 10 0 23 7 30 14 6 8 34 29 61 46 27
18 46 36 43 41 -7 11 -379 10 -418 -1z"/>
<path d="M3056 1251 c-6 -10 52 -61 70 -61 8 0 84 -48 109 -68 6 -4 25 -17 44
-28 19 -10 42 -25 50 -32 9 -8 44 -32 79 -54 35 -21 79 -57 99 -79 19 -21 41
-39 48 -39 8 0 26 -11 42 -24 15 -13 42 -32 59 -42 17 -11 70 -45 118 -77 48
-32 99 -62 113 -68 14 -5 41 -23 61 -39 20 -17 40 -30 44 -30 5 0 8 61 8 135
l0 134 -42 46 c-23 25 -48 45 -55 45 -14 0 -126 72 -151 97 -7 7 -19 13 -26
13 -7 0 -31 16 -53 35 -23 19 -48 35 -57 35 -9 0 -16 3 -16 8 0 4 -18 18 -40
32 -22 14 -40 28 -40 32 0 5 -8 8 -18 8 -10 0 -23 5 -30 12 -16 16 -407 24
-416 9z"/>
<path d="M3720 1252 c0 -14 33 -40 72 -56 19 -9 38 -22 41 -31 4 -8 14 -15 23
-15 10 0 31 -11 48 -24 17 -12 46 -31 64 -40 l32 -17 0 96 0 95 -140 0 c-77 0
-140 -4 -140 -8z"/>
<path d="M0 1125 l0 -125 240 0 c238 0 241 0 230 20 -13 25 -5 40 21 40 11 0
22 8 25 18 12 37 22 46 71 61 60 19 65 23 67 53 1 18 8 24 34 26 18 2 45 10
60 18 24 12 -18 14 -360 14 l-388 0 0 -125z"/>
<path d="M1456 1109 c-21 -16 -45 -29 -52 -29 -8 0 -14 -4 -14 -8 0 -12 -126
-92 -144 -92 -9 0 -25 -10 -35 -22 -11 -13 -28 -32 -38 -44 -10 -12 -28 -24
-41 -28 -12 -4 -37 -21 -54 -37 -18 -16 -38 -29 -44 -29 -6 0 -17 -7 -25 -16
-7 -8 -29 -24 -48 -35 -82 -45 -133 -77 -216 -134 -48 -33 -101 -68 -119 -79
-17 -10 -44 -29 -59 -42 -16 -13 -36 -24 -44 -24 -9 0 -23 -7 -32 -15 -9 -8
-27 -24 -41 -37 -44 -41 -124 -98 -137 -98 -6 0 -18 -8 -25 -18 -7 -10 -27
-24 -45 -31 -17 -7 -39 -21 -49 -32 -9 -10 -25 -19 -35 -19 -9 0 -28 -9 -41
-20 -12 -11 -44 -34 -70 -51 l-48 -31 0 -69 0 -69 755 0 755 0 0 570 c0 314
-3 570 -7 569 -5 0 -26 -14 -47 -30z"/>
<path d="M2510 570 l0 -570 745 0 745 0 0 83 0 82 -32 14 c-18 8 -42 21 -53
31 -11 9 -35 23 -52 30 -18 7 -33 16 -33 21 0 5 -19 18 -42 29 -24 11 -63 36
-88 55 -25 19 -59 42 -77 51 -18 9 -35 24 -38 35 -4 10 -12 19 -19 19 -8 0
-19 7 -27 16 -7 9 -32 25 -55 36 -23 10 -50 28 -60 39 -9 10 -23 19 -31 19 -7
0 -21 8 -31 18 -11 11 -48 36 -83 57 -35 22 -73 46 -84 55 -26 22 -144 90
-155 90 -4 0 -10 7 -13 15 -4 8 -21 21 -39 28 -18 8 -39 21 -47 30 -7 10 -20
17 -27 17 -8 0 -39 25 -70 55 -31 30 -65 55 -75 55 -10 0 -33 14 -51 30 -18
17 -36 30 -41 30 -5 0 -21 9 -35 21 -40 30 -116 79 -124 79 -5 0 -8 -256 -8
-570z"/>
</g>
</svg>
